<svg width="681" height="239" viewBox="0 0 681 239" fill="none" xmlns="http://www.w3.org/2000/svg">
<path d="M279.48 176L259.8 100.16H268.6L285.24 167.04L304.28 108.48V100.16H311.16L331.96 167.04L348.44 100.16H357.24L337.56 176H328.12L308.76 115.68L289.08 176H279.48ZM381.495 80.48V70.88H391.575V80.48H381.495ZM382.615 176V107.52H370.775L371.735 100.16H391.415V176H382.615ZM451.02 177.6C445.153 177.6 440.033 176.8 435.66 175.2C431.393 173.493 427.393 170.933 423.66 167.52L422.86 176H415.5V68.16H424.3V106.56C428.14 103.787 432.247 101.76 436.62 100.48C440.993 99.2 445.793 98.56 451.02 98.56C461.687 98.56 470.007 101.6 475.98 107.68C481.953 113.76 484.94 123.68 484.94 137.44C484.94 151.307 481.953 161.493 475.98 168C470.007 174.4 461.687 177.6 451.02 177.6ZM448.94 170.4C458.753 170.4 465.74 167.627 469.9 162.08C474.167 156.427 476.3 148.213 476.3 137.44C476.3 126.133 474.007 118.08 469.42 113.28C464.94 108.373 458.007 105.92 448.62 105.92C443.393 105.92 438.753 106.72 434.7 108.32C430.753 109.813 427.287 111.787 424.3 114.24V160.16C430.7 166.987 438.913 170.4 448.94 170.4ZM540.25 177.6C526.597 177.6 516.623 174.4 510.33 168C504.143 161.493 501.05 151.36 501.05 137.6C501.05 125.44 503.77 115.893 509.21 108.96C514.757 102.027 523.717 98.56 536.09 98.56C543.45 98.56 549.423 99.9467 554.01 102.72C558.597 105.387 561.957 109.013 564.09 113.6C566.33 118.187 567.45 123.307 567.45 128.96V142.72H509.85C510.277 152.533 512.837 159.627 517.53 164C522.223 168.267 530.383 170.4 542.01 170.4C549.05 170.4 555.877 169.067 562.49 166.4V173.6C555.983 176.267 548.57 177.6 540.25 177.6ZM509.85 135.84H559.45V128.64C559.45 121.6 557.637 116.053 554.01 112C550.383 107.947 544.463 105.92 536.25 105.92C526.223 105.92 519.29 108.533 515.45 113.76C511.717 118.88 509.85 126.24 509.85 135.84ZM594.355 84.32V69.92H613.395V84.32H594.355ZM595.795 176V113.44H584.275L585.875 100.16H613.235V176H595.795ZM662.54 177.6C654.433 177.6 648.353 175.467 644.3 171.2C640.353 166.827 638.38 160.907 638.38 153.44V113.76H627.18V100.16H638.38V82.72L655.66 77.44V100.16H675.82L674.7 113.76H655.66V152.48C655.66 156.853 656.673 159.947 658.7 161.76C660.727 163.467 664.033 164.32 668.62 164.32C671.5 164.32 674.54 163.787 677.74 162.72V175.04C673.58 176.747 668.513 177.6 662.54 177.6Z" fill="black"/>
<path d="M49.4147 102.859C47.6122 101.057 47.6254 98.2941 49.4451 96.4745L62.0223 83.8972C64.1106 81.8089 67.7113 81.7918 69.7798 83.8603L177.402 191.483C179.205 193.285 179.191 196.047 177.372 197.867L164.794 210.444C162.706 212.533 159.106 212.55 157.037 210.481L49.4147 102.859Z" fill="#00A4EA"/>
<path d="M217.846 120.827C219.6 119.112 222.253 119.098 224.072 120.794L237.04 132.887C239.266 134.963 239.338 138.7 237.191 140.799L165.413 210.985C163.659 212.7 161.006 212.713 159.187 211.017L146.219 198.924C143.993 196.848 143.921 193.111 146.068 191.013L217.846 120.827Z" fill="#00A4EA"/>
<path d="M13.675 142.688C11.9299 140.965 11.8698 138.313 13.534 136.464L25.399 123.287C27.4358 121.025 31.1707 120.888 33.3066 122.998L104.735 193.54C106.48 195.264 106.54 197.916 104.876 199.764L93.0106 212.942C90.9738 215.204 87.2389 215.341 85.103 213.231L13.675 142.688Z" fill="#00A4EA"/>
<path d="M181.483 85.4147C183.285 83.6122 186.047 83.6254 187.867 85.4451L200.444 98.0223C202.533 100.111 202.55 103.711 200.481 105.78L92.859 213.402C91.0565 215.205 88.2941 215.191 86.4745 213.372L73.8972 200.794C71.8089 198.706 71.7918 195.106 73.8603 193.037L181.483 85.4147Z" fill="#00A4EA"/>
<rect x="109" y="93.2175" width="25.7635" height="25.7635" transform="rotate(-45 109 93.2175)" fill="#EE8F00"/>
<rect x="109" y="48.2175" width="25.7635" height="25.7635" transform="rotate(-45 109 48.2175)" fill="#EE8F00"/>
</svg>
